<svg xmlns="http://www.w3.org/2000/svg" version="1.1" xmlns:xlink="http://www.w3.org/1999/xlink" xmlns:svgjs="http://svgjs.dev/svgjs" width="2000" height="1247" viewBox="0 0 2000 1247"><g transform="matrix(1,0,0,1,-1.2121212121212466,0.504858299595071)"><svg viewBox="0 0 396 247" data-background-color="#ffffff" preserveAspectRatio="xMidYMid meet" height="1247" width="2000" xmlns="http://www.w3.org/2000/svg" xmlns:xlink="http://www.w3.org/1999/xlink"><g id="tight-bounds" transform="matrix(1,0,0,1,0.2400000000000091,-0.09999999999999432)"><svg viewBox="0 0 395.52 247.2" height="247.2" width="395.52"><g><svg></svg></g><g><svg viewBox="0 0 395.52 247.2" height="247.2" width="395.52"><mask id="19f67949-aa7a-4554-8e27-d89138d2f4dd"><rect width="640" height="400" fill="white"></rect><g transform="matrix(1,0,0,1,39.55200000000002,73.46461794696128)"><svg viewBox="0 0 316.41599999999994 100.27076410607742" height="100.27076410607742" width="316.41599999999994"><g><svg viewBox="0 0 316.41599999999994 100.27076410607742" height="100.27076410607742" width="316.41599999999994"><g><svg viewBox="0 0 316.41599999999994 100.27076410607742" height="100.27076410607742" width="316.41599999999994"><g><svg viewBox="0 0 316.41599999999994 100.27076410607742" height="100.27076410607742" width="316.41599999999994"><g id="SvgjsG1002"><svg viewBox="0 0 316.41599999999994 100.27076410607742" height="100.27076410607742" width="316.41599999999994" id="SvgjsSvg1001"><g><svg viewBox="0 0 316.41599999999994 100.27076410607742" height="100.27076410607742" width="316.41599999999994"><g transform="matrix(1,0,0,1,0,0)"><svg width="316.41599999999994" viewBox="-2.85 -43.04 147.79999999999998 47.529999999999994" height="100.27076410607742" data-palette-color="#030303"><path d="M27.86-26.1L27.86 0 26.25 0 23.66-3.59Q22.71-2.73 21.64-1.99 20.58-1.25 19.41-0.7 18.24-0.15 17 0.17 15.77 0.49 14.5 0.49L14.5 0.49Q11.74 0.49 9.31-0.44 6.88-1.37 5.07-3.14 3.25-4.91 2.2-7.47 1.15-10.03 1.15-13.31L1.15-13.31Q1.15-16.36 2.2-18.91 3.25-21.46 5.07-23.29 6.88-25.12 9.31-26.14 11.74-27.15 14.5-27.15L14.5-27.15Q15.77-27.15 17.02-26.83 18.26-26.51 19.43-25.95 20.61-25.39 21.67-24.63 22.73-23.88 23.66-23L23.66-23 26.25-26.1 27.86-26.1ZM21.14-13.31L21.14-13.31Q21.14-14.67 20.62-15.95 20.09-17.24 19.19-18.23 18.29-19.21 17.08-19.81 15.87-20.41 14.5-20.41L14.5-20.41Q13.13-20.41 11.93-19.95 10.72-19.48 9.83-18.58 8.94-17.68 8.42-16.35 7.91-15.01 7.91-13.31L7.91-13.31Q7.91-11.6 8.42-10.27 8.94-8.94 9.83-8.03 10.72-7.13 11.93-6.67 13.13-6.2 14.5-6.2L14.5-6.2Q15.87-6.2 17.08-6.8 18.29-7.4 19.19-8.39 20.09-9.38 20.62-10.66 21.14-11.94 21.14-13.31ZM40.79-33.25L40.79-33.25Q40.79-32.32 40.44-31.52 40.09-30.71 39.48-30.11 38.86-29.52 38.05-29.16 37.23-28.81 36.3-28.81L36.3-28.81Q35.37-28.81 34.56-29.16 33.74-29.52 33.14-30.11 32.54-30.71 32.19-31.52 31.83-32.32 31.83-33.25L31.83-33.25Q31.83-34.16 32.19-34.97 32.54-35.79 33.14-36.39 33.74-36.99 34.56-37.34 35.37-37.7 36.3-37.7L36.3-37.7Q37.23-37.7 38.05-37.34 38.86-36.99 39.48-36.39 40.09-35.79 40.44-34.97 40.79-34.16 40.79-33.25ZM39.65-26.15L39.65 0 32.93 0 32.93-26.15 39.65-26.15ZM51.39-14.4L51.39 0 44.72 0 44.72-26.15 46.33-26.15 48.53-23.05Q50.14-24.51 52.19-25.31 54.24-26.1 56.44-26.1L56.44-26.1 62.32-26.1 62.32-19.46 56.44-19.46Q55.39-19.46 54.46-19.07 53.54-18.68 52.85-17.99 52.17-17.31 51.78-16.38 51.39-15.45 51.39-14.4L51.39-14.4ZM86.12-36.55L86.12 0 79.41 0 79.41-36.55 86.12-36.55ZM99.06-33.25L99.06-33.25Q99.06-32.32 98.71-31.52 98.35-30.71 97.74-30.11 97.13-29.52 96.31-29.16 95.5-28.81 94.57-28.81L94.57-28.81Q93.64-28.81 92.82-29.16 92-29.52 91.41-30.11 90.81-30.71 90.45-31.52 90.1-32.32 90.1-33.25L90.1-33.25Q90.1-34.16 90.45-34.97 90.81-35.79 91.41-36.39 92-36.99 92.82-37.34 93.64-37.7 94.57-37.7L94.57-37.7Q95.5-37.7 96.31-37.34 97.13-36.99 97.74-36.39 98.35-35.79 98.71-34.97 99.06-34.16 99.06-33.25ZM97.91-26.15L97.91 0 91.2 0 91.2-26.15 97.91-26.15ZM111.46-19.51L111.46 0 104.79 0 104.79-19.51 101.55-19.51 101.55-26.15 104.79-26.15 104.79-27.39Q104.79-29.81 105.71-31.93 106.63-34.06 108.22-35.63 109.82-37.21 111.95-38.12 114.07-39.04 116.49-39.04L116.49-39.04 121.49-39.04 121.49-32.4 116.49-32.4Q115.41-32.4 114.5-32.02 113.58-31.64 112.91-30.97 112.24-30.3 111.85-29.38 111.46-28.47 111.46-27.39L111.46-27.39 111.46-26.15 119.64-26.15 119.64-19.51 111.46-19.51ZM140.95 0L135.9 0Q133.48 0 131.35-0.92 129.23-1.83 127.63-3.43 126.03-5.03 125.12-7.15 124.2-9.28 124.2-11.69L124.2-11.69 124.2-19.46 120.95-19.46 120.95-26.1 124.2-26.1 124.2-36.55 130.84-36.55 130.84-26.1 140.95-26.1 140.95-19.46 130.84-19.46 130.84-11.69Q130.84-10.64 131.23-9.73 131.62-8.81 132.31-8.13 132.99-7.45 133.92-7.04 134.85-6.64 135.9-6.64L135.9-6.64 140.95-6.64 140.95 0Z" opacity="1" transform="matrix(1,0,0,1,0,0)" fill="black" class="wordmark-text-0" id="SvgjsPath1000" stroke-width="7" stroke="black" stroke-linejoin="round"></path></svg></g></svg></g></svg></g></svg></g><g></g></svg></g></svg></g></svg></g></mask><g transform="matrix(1,0,0,1,39.55200000000002,73.46461794696128)"><svg viewBox="0 0 316.41599999999994 100.27076410607742" height="100.27076410607742" width="316.41599999999994"><g><svg viewBox="0 0 316.41599999999994 100.27076410607742" height="100.27076410607742" width="316.41599999999994"><g><svg viewBox="0 0 316.41599999999994 100.27076410607742" height="100.27076410607742" width="316.41599999999994"><g><svg viewBox="0 0 316.41599999999994 100.27076410607742" height="100.27076410607742" width="316.41599999999994"><g id="textblocktransform"><svg viewBox="0 0 316.41599999999994 100.27076410607742" height="100.27076410607742" width="316.41599999999994" id="textblock"><g><svg viewBox="0 0 316.41599999999994 100.27076410607742" height="100.27076410607742" width="316.41599999999994"><g transform="matrix(1,0,0,1,0,0)"><svg width="316.41599999999994" viewBox="-2.85 -43.04 147.79999999999998 47.529999999999994" height="100.27076410607742" data-palette-color="#030303"><path d="M27.86-26.1L27.86 0 26.25 0 23.66-3.59Q22.71-2.73 21.64-1.99 20.58-1.25 19.41-0.7 18.24-0.15 17 0.17 15.77 0.49 14.5 0.49L14.5 0.49Q11.74 0.49 9.31-0.44 6.88-1.37 5.07-3.14 3.25-4.91 2.2-7.47 1.15-10.03 1.15-13.31L1.15-13.31Q1.15-16.36 2.2-18.91 3.25-21.46 5.07-23.29 6.88-25.12 9.31-26.14 11.74-27.15 14.5-27.15L14.5-27.15Q15.77-27.15 17.02-26.83 18.26-26.51 19.43-25.95 20.61-25.39 21.67-24.63 22.73-23.88 23.66-23L23.66-23 26.25-26.1 27.86-26.1ZM21.14-13.31L21.14-13.31Q21.14-14.67 20.62-15.95 20.09-17.24 19.19-18.23 18.29-19.21 17.08-19.81 15.87-20.41 14.5-20.41L14.5-20.41Q13.13-20.41 11.93-19.95 10.72-19.48 9.83-18.58 8.94-17.68 8.42-16.35 7.91-15.01 7.91-13.31L7.91-13.31Q7.91-11.6 8.42-10.27 8.94-8.94 9.83-8.03 10.72-7.13 11.93-6.67 13.13-6.2 14.5-6.2L14.5-6.2Q15.87-6.2 17.08-6.8 18.29-7.4 19.19-8.39 20.09-9.38 20.62-10.66 21.14-11.94 21.14-13.31ZM40.79-33.25L40.79-33.25Q40.79-32.32 40.44-31.52 40.09-30.71 39.48-30.11 38.86-29.52 38.05-29.16 37.23-28.81 36.3-28.81L36.3-28.81Q35.37-28.81 34.56-29.16 33.74-29.52 33.14-30.11 32.54-30.71 32.19-31.52 31.83-32.32 31.83-33.25L31.83-33.25Q31.83-34.16 32.19-34.97 32.54-35.79 33.14-36.39 33.74-36.99 34.56-37.34 35.37-37.7 36.3-37.7L36.3-37.7Q37.23-37.7 38.05-37.34 38.86-36.99 39.48-36.39 40.09-35.79 40.44-34.97 40.79-34.16 40.79-33.25ZM39.65-26.15L39.65 0 32.93 0 32.93-26.15 39.65-26.15ZM51.39-14.4L51.39 0 44.72 0 44.72-26.15 46.33-26.15 48.53-23.05Q50.14-24.51 52.19-25.31 54.24-26.1 56.44-26.1L56.44-26.1 62.32-26.1 62.32-19.46 56.44-19.46Q55.39-19.46 54.46-19.07 53.54-18.68 52.85-17.99 52.17-17.31 51.78-16.38 51.39-15.45 51.39-14.4L51.39-14.4ZM86.12-36.55L86.12 0 79.41 0 79.41-36.55 86.12-36.55ZM99.06-33.25L99.06-33.25Q99.06-32.32 98.71-31.52 98.35-30.71 97.74-30.11 97.13-29.52 96.31-29.16 95.5-28.81 94.57-28.81L94.57-28.81Q93.64-28.81 92.82-29.16 92-29.52 91.41-30.11 90.81-30.71 90.45-31.52 90.1-32.32 90.1-33.25L90.1-33.25Q90.1-34.16 90.45-34.97 90.81-35.79 91.41-36.39 92-36.99 92.82-37.34 93.64-37.7 94.57-37.7L94.57-37.7Q95.5-37.7 96.31-37.34 97.13-36.99 97.74-36.39 98.35-35.79 98.71-34.97 99.06-34.16 99.06-33.25ZM97.91-26.15L97.91 0 91.2 0 91.2-26.15 97.91-26.15ZM111.46-19.51L111.46 0 104.79 0 104.79-19.51 101.55-19.51 101.55-26.15 104.79-26.15 104.79-27.39Q104.79-29.81 105.71-31.93 106.63-34.06 108.22-35.63 109.82-37.21 111.95-38.12 114.07-39.04 116.49-39.04L116.49-39.04 121.49-39.04 121.49-32.4 116.49-32.4Q115.41-32.4 114.5-32.02 113.58-31.64 112.91-30.97 112.24-30.3 111.85-29.38 111.46-28.47 111.46-27.39L111.46-27.39 111.46-26.15 119.64-26.15 119.64-19.51 111.46-19.51ZM140.95 0L135.9 0Q133.48 0 131.35-0.92 129.23-1.83 127.63-3.43 126.03-5.03 125.12-7.15 124.2-9.28 124.2-11.69L124.2-11.69 124.2-19.46 120.95-19.46 120.95-26.1 124.2-26.1 124.2-36.55 130.84-36.55 130.84-26.1 140.95-26.1 140.95-19.46 130.84-19.46 130.84-11.69Q130.84-10.64 131.23-9.73 131.62-8.81 132.31-8.13 132.99-7.45 133.92-7.04 134.85-6.64 135.9-6.64L135.9-6.64 140.95-6.64 140.95 0Z" opacity="1" transform="matrix(1,0,0,1,0,0)" fill="#030303" class="wordmark-text-0" data-fill-palette-color="primary" id="text-0"></path></svg></g></svg></g></svg></g></svg></g><g></g></svg></g></svg></g></svg></g><g mask="url(#19f67949-aa7a-4554-8e27-d89138d2f4dd)"><g transform="matrix(3.9352347403799572, 0, 0, 3.9352347403799572, 1, 11.805810338636562)"><svg version="1.0" xmlns="http://www.w3.org/2000/svg" xmlns:xlink="http://www.w3.org/1999/xlink" x="0" y="0" viewBox="0 0 99.99911719675573 56.81703737478665" enable-background="new 0 0 100 56.817" xml:space="preserve" width="99.99911719675573" height="56.81703737478665" class="icon-none" data-fill-palette-color="accent" id="none"><path d="M99.861 54.004c1.105-2.808-4.693-7.46-7.682-8.455-10.871-3.622-21.74-7.243-32.611-10.865L38.391 0l-5.732 1.011 1.302 25.205C23.471 22.856 4.226 16.747 0.766 15.595c-2.979-0.993 12.925 14.858 17.513 17.235 0 0 39.002 13.246 56.314 19.014 4.45 1.482 8.9 2.966 13.351 4.448C90.923 57.284 98.663 57.052 99.861 54.004z" fill="#030303" data-fill-palette-color="accent"></path><polygon points="4.096,0.855 0,1.278 0.812,13.578 12.572,17.269 " fill="#030303" data-fill-palette-color="accent"></polygon><circle cx="49.924" cy="47.482" r="1.9" fill="#030303" data-fill-palette-color="accent"></circle><circle cx="44.523" cy="45.576" r="1.9" fill="#030303" data-fill-palette-color="accent"></circle></svg></g></g></svg></g><defs></defs></svg><rect width="395.52" height="247.2" fill="none" stroke="none" visibility="hidden"></rect></g></svg></g></svg>